HIERARCHY
ROOT Hips
{
    OFFSET 0.000000 0.000000 0.000000
    CHANNELS 6 Xposition Yposition Zposition Zrotation Xrotation Yrotation
        JOINT Chest
        {
            OFFSET -0.000000 32.910728 -0.000000
            CHANNELS 3 Zrotation Xrotation Yrotation
            JOINT Neck
            {
                OFFSET -0.000000 24.872103 0.000000
                CHANNELS 3 Zrotation Xrotation Yrotation
                JOINT Head
                {
                    OFFSET -0.000000 10.694444 0.000000
                    CHANNELS 3 Zrotation Xrotation Yrotation
                    End Site
                    {
                        OFFSET -0.000000 16.527781 0.000000
                    }
                }
            }
            JOINT LeftCollar
            {
                OFFSET -0.000000 24.872103 0.000000
                CHANNELS 3 Zrotation Xrotation Yrotation
                JOINT LeftShoulder
                {
                    OFFSET 20.500000 -0.000000 0.000000
                    CHANNELS 3 Zrotation Xrotation Yrotation
                    JOINT LeftElbow
                    {
                        OFFSET 20.261999 0.000000 0.000000
                        CHANNELS 3 Zrotation Xrotation Yrotation
                        JOINT LeftWrist
                        {
                            OFFSET 25.372869 0.000000 0.000000
                            CHANNELS 3 Zrotation Xrotation Yrotation
                            End Site
                            {
                                OFFSET 0.000000 -14.583331 0.000000
                            }
                        }
                    }
                }
            }
            JOINT RightCollar
            {
                OFFSET -0.000000 24.872103 0.000000
                CHANNELS 3 Zrotation Xrotation Yrotation
                JOINT RightShoulder
                {
                    OFFSET -20.500000 0.000000 0.000000
                    CHANNELS 3 Zrotation Xrotation Yrotation
                    JOINT RightElbow
                    {
                        OFFSET -20.261999 0.000000 0.000000
                        CHANNELS 3 Zrotation Xrotation Yrotation
                        JOINT RightWrist
                        {
                            OFFSET -25.372869 0.000000 0.000000
                            CHANNELS 3 Zrotation Xrotation Yrotation
                            End Site
                            {
                                OFFSET -0.000000 -14.583331 0.000000
                            }
                        }
                    }
                }
            }
        }
    JOINT LeftHip
    {
        OFFSET 11.666668 0.000000 0.000000
        CHANNELS 3 Zrotation Xrotation Yrotation
        JOINT LeftKnee
        {
            OFFSET -0.000000 -37.459236 0.000000
            CHANNELS 3 Zrotation Xrotation Yrotation
            JOINT LeftAnkle
            {
                OFFSET -0.000000 -38.972313 0.000000
                CHANNELS 3 Zrotation Xrotation Yrotation
                End Site
                {
                    OFFSET -0.000000 -4.861111 16.527781
                }
            }
        }
    }
    JOINT RightHip
    {
        OFFSET -11.666668 0.000000 0.000000
        CHANNELS 3 Zrotation Xrotation Yrotation
        JOINT RightKnee
        {
            OFFSET -0.000000 -37.459236 0.000000
            CHANNELS 3 Zrotation Xrotation Yrotation
            JOINT RightAnkle
            {
                OFFSET -0.000000 -38.972313 0.000000
                CHANNELS 3 Zrotation Xrotation Yrotation
                End Site
                {
                    OFFSET -0.000000 -4.861111 16.527781
                }
            }
        }
    }
}
MOTION
Frames:    14
Frame Time:    0.010000
21.172037    87.249283    -7.591480    -3.174016    1.537009    -26.942120    -6.763186    25.106684    2.064658    2.702249    -8.643247    9.238853    0.316211    -19.792093    9.091136    -27.001934    -1.268067    5.441144    10.772040    65.186073    -65.551094    46.903034    -19.349493    -42.269173    94.165016    17.543060    73.905685    29.186125    -3.656043    -13.875816    26.150864    36.084560    14.175802    -3.022365    -2.652849    80.493523    -100.147476    -3.843920    20.072039    5.247244    -15.081931    9.604701    3.001675    20.710335    -10.847016    -10.185030    2.079718    4.704576    -9.076894    -10.123214    -2.599211    2.912750    40.540119    -10.498497    9.343502    -12.686670    7.566922    
20.940765    87.237968    -7.876481    -3.104210    1.526764    -26.866375    -6.820654    25.001211    2.046275    2.641454    -8.649190    9.115922    0.634250    -19.870554    9.028570    -26.881580    -1.308977    5.643142    11.259076    65.448601    -66.226463    47.636276    -19.492294    -41.838310    94.111481    17.192879    76.159889    29.353045    -3.651434    -13.741078    25.913157    36.551788    14.669984    -3.192704    -2.841654    80.723518    -99.125084    -3.822445    19.747221    5.361534    -15.185470    9.542532    3.091344    20.623138    -10.918633    -10.453573    2.206268    4.745817    -9.370336    -9.956784    -2.555545    2.987750    40.336575    -10.417233    9.010956    -12.896669    7.514976    
20.701097    87.220581    -8.165458    -3.032758    1.524103    -26.803919    -6.860514    24.870989    2.028398    2.595800    -8.643315    8.976694    0.921091    -19.946650    8.944558    -26.736969    -1.347048    5.835598    12.046914    65.748886    -67.198738    48.423302    -19.606714    -41.276943    94.122047    16.749281    78.538849    29.529812    -3.644530    -13.636668    25.697813    37.012192    15.122238    -3.361625    -3.000345    80.948341    -98.219086    -3.916982    19.333916    5.487954    -15.304998    9.482599    3.173929    20.558708    -11.018072    -10.753162    2.329355    4.835070    -9.645730    -9.808892    -2.529156    3.022487    40.099274    -10.343479    8.638156    -13.102256    7.470507    
20.451035    87.195854    -8.459936    -2.963311    1.532691    -26.749548    -6.874199    24.719673    2.009220    2.561667    -8.620052    8.836523    1.178365    -20.026731    8.853361    -26.575897    -1.389963    6.043389    13.248956    66.079033    -68.579544    49.301079    -19.689392    -40.542088    94.195221    16.225433    81.039879    29.706844    -3.629673    -13.542437    25.500811    37.463417    15.540795    -3.517985    -3.138921    81.171310    -97.410011    -4.101014    18.838324    5.634870    -15.442545    9.431128    3.246694    20.513983    -11.135234    -11.077544    2.453285    4.960082    -9.893201    -9.679996    -2.526537    3.010110    39.831211    -10.261415    8.228406    -13.307402    7.414195    
20.189562    87.163048    -8.760294    -2.897804    1.553155    -26.700928    -6.851167    24.556692    1.987560    2.537017    -8.583352    8.704059    1.403116    -20.111660    8.764337    -26.409704    -1.428305    6.279988    14.873749    66.405869    -70.368126    50.260334    -19.723438    -39.658848    94.333664    15.681393    83.660332    29.871340    -3.619239    -13.448336    25.319214    37.916733    15.936203    -3.665060    -3.271064    81.388885    -96.676849    -4.338902    18.255516    5.805141    -15.595634    9.393165    3.310317    20.482586    -11.258586    -11.416683    2.582560    5.106925    -10.107865    -9.568675    -2.546643    2.950799    39.534992    -10.160304    7.788882    -13.513021    7.329190    
19.916752    87.122070    -9.065798    -2.835829    1.582641    -26.657448    -6.791399    24.394411    1.965364    2.526011    -8.553144    8.571639    1.581376    -20.191292    8.666394    -26.242504    -1.475560    6.532272    16.955139    66.713371    -72.599815    51.324257    -19.712015    -38.614212    94.501656    15.163067    86.379288    30.017632    -3.613381    -13.375843    25.143270    38.356667    16.324936    -3.795493    -3.373465    81.603790    -96.021553    -4.588657    17.576073    5.995318    -15.757938    9.369965    3.367924    20.456133    -11.376868    -11.755881    2.722690    5.262290    -10.290565    -9.470949    -2.580835    2.852417    39.211853    -10.040091    7.335349    -13.713515    7.204488    
19.633739    87.073479    -9.374868    -2.774439    1.614464    -26.618933    -6.705480    24.243931    1.946776    2.528272    -8.543544    8.436487    1.711466    -20.257706    8.555226    -26.081751    -1.522844    6.793963    19.416039    66.969429    -75.189621    52.457466    -19.643772    -37.473301    94.677002    14.764696    89.176155    30.140947    -3.613843    -13.332257    24.961912    38.778500    16.726744    -3.890975    -3.445484    81.810211    -95.451340    -4.815520    16.815987    6.195470    -15.920147    9.357357    3.423988    20.425686    -11.479756    -12.075476    2.880320    5.413580    -10.448076    -9.380088    -2.616822    2.728024    38.861755    -9.908250    6.885258    -13.898222    7.035161    
19.342310    87.018394    -9.685713    -2.708850    1.639813    -26.584782    -6.599688    24.114840    1.932877    2.535771    -8.554728    8.308411    1.810044    -20.308504    8.444674    -25.938442    -1.568442    7.072250    22.037291    67.141510    -77.917000    53.625317    -19.528728    -36.307465    94.822815    14.560404    91.973373    30.242498    -3.597169    -13.293903    24.764572    39.171425    17.142200    -3.936724    -3.452429    82.008804    -94.970253    -4.992675    16.008568    6.391618    -16.072523    9.346600    3.483258    20.383621    -11.558536    -12.355470    3.062129    5.548678    -10.590778    -9.288255    -2.642675    2.591813    38.484497    -9.774211    6.449825    -14.054473    6.822522    
19.044134    86.958069    -9.997225    -2.634029    1.651368    -26.554420    -6.487079    24.015398    1.926761    2.554088    -8.607665    8.167150    1.863887    -20.328209    8.311240    -25.815636    -1.616003    7.313775    24.508093    67.240555    -80.474045    54.771576    -19.386341    -35.230667    94.902588    14.619512    94.651649    30.302597    -3.656795    -13.296311    24.545183    39.613811    17.630035    -4.008661    -3.537777    82.138336    -94.482010    -5.126196    15.222845    6.571431    -16.208418    9.328756    3.548682    20.324488    -11.603292    -12.581270    3.274713    5.653750    -10.727996    -9.190081    -2.648129    2.456134    38.080555    -9.645438    6.032160    -14.169045    6.572793    
18.740210    86.893501    -10.309505    -2.545555    1.646042    -26.528126    -6.371634    23.943806    1.927542    2.570458    -8.689064    8.029032    1.907277    -20.318214    8.177521    -25.724186    -1.673204    7.526927    26.418076    67.288872    -82.452530    55.826927    -19.252800    -34.377224    94.883751    14.997128    97.064308    30.357433    -3.634520    -13.294626    24.301157    39.968956    18.090532    -3.922403    -3.392301    82.298874    -94.308823    -5.159121    14.402570    6.727947    -16.326721    9.298725    3.620342    20.245455    -11.599927    -12.747407    3.524214    5.712313    -10.864820    -9.085406    -2.623959    2.330054    37.651714    -9.526818    5.629683    -14.227697    6.296727    
18.430861    86.825241    -10.623720    -2.440093    1.624857    -26.507042    -6.258467    23.896740    1.937596    2.588509    -8.808467    7.873166    1.930750    -20.269650    8.021155    -25.665768    -1.718221    7.661184    27.422606    67.326836    -83.507744    56.692963    -19.172714    -33.904545    94.762070    15.729925    99.066124    30.395283    -3.602797    -13.318542    24.004723    40.304546    18.659430    -3.844286    -3.304695    82.381317    -94.111794    -5.154568    13.764214    6.859755    -16.430992    9.255261    3.695617    20.146191    -11.534874    -12.858347    3.813008    5.711868    -11.001755    -8.978761    -2.561766    2.219417    37.200542    -9.421263    5.240425    -14.212350    6.009402    
18.115841    86.753418    -10.941538    -2.315522    1.591334    -26.492331    -6.154392    23.863970    1.959215    2.604372    -8.955261    7.697564    1.947592    -20.185591    7.843010    -25.637829    -1.759088    7.707162    27.344711    67.387085    -83.478447    57.348061    -19.193647    -33.838402    94.533302    16.737122    100.515205    30.403854    -3.625158    -13.359049    23.687229    40.685326    19.286926    -3.779835    -3.271276    82.383202    -94.039993    -5.106347    13.240111    6.968989    -16.527342    9.199140    3.770885    20.029139    -11.405607    -12.926512    4.135533    5.652733    -11.135759    -8.876568    -2.454252    2.127047    36.729122    -9.331617    4.872397    -14.100373    5.729774    
17.794319    86.677658    -11.264579    -2.171643    1.549696    -26.484119    -6.058361    23.835629    1.994298    2.613789    -9.112307    7.503770    1.966172    -20.076719    7.646412    -25.643063    -1.739833    7.672856    26.049887    67.441490    -82.221672    57.688931    -19.331947    -34.271191    94.278961    17.994102    101.357162    30.396631    -3.652200    -13.399017    23.372606    41.066345    19.899975    -3.687177    -3.157764    82.351646    -94.176529    -5.012640    12.826008    7.059945    -16.621838    9.133150    3.843854    19.898651    -11.225118    -12.969554    4.478564    5.548486    -11.260967    -8.784040    -2.295797    2.053107    36.238235    -9.261168    4.545372    -13.870943    5.476522    
17.464954    86.597237    -11.594069    -2.009994    1.503680    -26.480324    -5.968287    23.806129    2.045272    2.619656    -9.273437    7.281590    1.976849    -19.949293    7.420269    -25.662125    -1.722422    7.558422    23.870636    67.488037    -80.108330    57.835197    -19.607021    -34.961613    94.007271    19.266993    101.534592    30.378023    -3.676531    -13.446982    23.064632    41.433590    20.521189    -3.568425    -3.033380    82.271294    -94.473465    -4.902040    12.572560    7.137322    -16.719122    9.060666    3.914695    19.759422    -11.017271    -13.008366    4.824231    5.421179    -11.369958    -8.703442    -2.084100    1.994888    35.727757    -9.213942    4.285648    -13.518047    5.264953    
